<?xml version="1.0" standalone="no"?>
<!DOCTYPE svg PUBLIC "-//W3C//DTD SVG 20010904//EN"
 "http://www.w3.org/TR/2001/REC-SVG-20010904/DTD/svg10.dtd">
<svg version="1.0" xmlns="http://www.w3.org/2000/svg"
 width="100.000000pt" height="100.000000pt" viewBox="0 0 100.000000 100.000000"
 preserveAspectRatio="xMidYMid meet">
<metadata>
Created by potrace 1.11, written by Peter Selinger 2001-2013
</metadata>
<g transform="translate(0.000000,100.000000) scale(0.100000,-0.100000)"
fill="#000000" stroke="none">
<path d="M390 896 c-143 -42 -250 -160 -285 -314 -16 -68 -16 -78 0 -150 10
-46 31 -101 52 -137 l35 -59 -22 -36 c-26 -44 -100 -188 -100 -195 0 -3 148
-5 329 -5 l329 0 -19 40 c-11 22 -19 61 -20 92 0 76 -27 210 -49 244 -11 18
-11 26 1 52 28 64 59 44 91 -58 19 -58 17 -80 -5 -80 -11 0 -13 -12 -9 -52 2
-29 8 -57 13 -63 12 -13 93 68 125 125 91 161 58 384 -74 501 -77 68 -158 101
-260 105 -53 2 -104 -2 -132 -10z m52 -113 c21 -18 25 -67 6 -60 -7 2 -12 9
-11 14 1 5 -7 9 -17 9 -18 0 -18 -2 -4 -24 18 -27 13 -40 -6 -17 -7 8 -21 15
-32 15 -30 0 -20 42 12 51 20 6 21 7 5 8 -17 1 -17 3 -5 11 21 14 31 12 52 -7z
m198 -92 c0 -11 -4 -23 -10 -26 -5 -3 -10 -20 -10 -36 0 -20 4 -28 11 -23 14
8 4 -43 -11 -61 -11 -14 -109 -39 -117 -31 -4 3 2 6 13 7 18 0 18 1 -1 9 -19
8 -19 9 2 9 15 1 23 9 28 31 4 18 17 34 33 42 22 11 27 20 27 48 0 33 9 49 28
50 4 0 7 -9 7 -19z m-246 -63 c22 -30 20 -65 -3 -80 -15 -9 -17 -16 -10 -30 8
-15 1 -27 -43 -67 l-53 -49 -7 34 c-4 18 -3 45 2 59 6 15 10 36 10 48 0 12 7
41 16 64 14 37 21 43 45 43 17 0 34 -8 43 -22z m246 -188 c0 -5 -5 -10 -11
-10 -5 0 -7 5 -4 10 3 6 8 10 11 10 2 0 4 -4 4 -10z"/>
</g>
</svg>
